HIERARCHY
ROOT root
{
	OFFSET 0.000000 0.000000 0.000000
	CHANNELS 6 Xposition Yposition Zposition Zrotation Yrotation Xrotation
	JOINT lhip
	{
		OFFSET 0.058581 -0.082280 -0.017664
		CHANNELS 3 Zrotation Yrotation Xrotation
		JOINT lknee
		{
			OFFSET 0.043451 -0.386469 0.008037
			CHANNELS 3 Zrotation Yrotation Xrotation
			JOINT lankle
			{
				OFFSET -0.014790 -0.426874 -0.037428
				CHANNELS 3 Zrotation Yrotation Xrotation
				JOINT ltoe
				{
					OFFSET 0.041054 -0.060286 0.122042
					CHANNELS 3 Zrotation Yrotation Xrotation
					End Site
					{
						OFFSET 0.000000 0.000000 0.000000
					}
				}
			}
		}
	}
	JOINT rhip
	{
		OFFSET -0.060310 -0.090513 -0.013543
		CHANNELS 3 Zrotation Yrotation Xrotation
		JOINT rknee
		{
			OFFSET -0.043257 -0.383688 -0.004843
			CHANNELS 3 Zrotation Yrotation Xrotation
			JOINT rankle
			{
				OFFSET 0.019056 -0.420046 -0.034562
				CHANNELS 3 Zrotation Yrotation Xrotation
				JOINT rtoe
				{
					OFFSET -0.034840 -0.062106 0.130323
					CHANNELS 3 Zrotation Yrotation Xrotation
					End Site
					{
						OFFSET 0.000000 0.000000 0.000000
					}
				}
			}
		}
	}
	JOINT lowerback
	{
		OFFSET 0.004439 0.124404 -0.038385
		CHANNELS 3 Zrotation Yrotation Xrotation
		JOINT upperback
		{
			OFFSET 0.004488 0.137956 0.026820
			CHANNELS 3 Zrotation Yrotation Xrotation
			JOINT chest
			{
				OFFSET -0.002265 0.056032 0.002855
				CHANNELS 3 Zrotation Yrotation Xrotation
				JOINT lowerneck
				{
					OFFSET -0.013390 0.211636 -0.033468
					CHANNELS 3 Zrotation Yrotation Xrotation
					JOINT upperneck
					{
						OFFSET 0.010113 0.088937 0.050410
						CHANNELS 3 Zrotation Yrotation Xrotation
						End Site
						{
							OFFSET 0.000000 0.000000 0.000000
						}
					}
				}
				JOINT lclavicle
				{
					OFFSET 0.071702 0.114000 -0.018898
					CHANNELS 3 Zrotation Yrotation Xrotation
					JOINT lshoulder
					{
						OFFSET 0.122921 0.045205 -0.019046
						CHANNELS 3 Zrotation Yrotation Xrotation
						JOINT lelbow
						{
							OFFSET 0.255332 -0.015649 -0.022946
							CHANNELS 3 Zrotation Yrotation Xrotation
							JOINT lwrist
							{
								OFFSET 0.265709 0.012698 -0.007375
								CHANNELS 3 Zrotation Yrotation Xrotation
								End Site
								{
									OFFSET 0.000000 0.000000 0.000000
								}
							}
						}
					}
				}
				JOINT rclavicle
				{
					OFFSET -0.082954 0.112472 -0.023707
					CHANNELS 3 Zrotation Yrotation Xrotation
					JOINT rshoulder
					{
						OFFSET -0.113228 0.046853 -0.008472
						CHANNELS 3 Zrotation Yrotation Xrotation
						JOINT relbow
						{
							OFFSET -0.260127 -0.014369 -0.031269
							CHANNELS 3 Zrotation Yrotation Xrotation
							JOINT rwrist
							{
								OFFSET -0.269108 0.006794 -0.006027
								CHANNELS 3 Zrotation Yrotation Xrotation
								End Site
								{
									OFFSET 0.000000 0.000000 0.000000
								}
							}
						}
					}
				}
			}
		}
	}
}
MOTION
Frames: 8
Frame Time: 0.033333
-0.080555 0.702559 0.846994 179.137931 -1.843276 90.763218 15.043811 13.595923 -34.225910 -9.918807 3.888175 57.666772 1.969588 4.286518 -32.794475 0.000000 -0.000000 0.000000 -11.852885 -6.580825 -38.889332 1.049279 -3.022597 68.912443 4.470461 -2.643805 -30.813469 0.000000 -0.000000 0.000000 -1.511340 -1.306579 40.842615 0.423385 -2.465539 -3.377864 2.007297 -3.417275 -2.077316 -3.567223 7.445387 -20.397459 0.771122 2.380701 1.890978 -26.292236 -13.426997 -1.199131 -43.035716 -14.073465 -6.269805 18.291620 -42.148599 -8.317651 -4.070843 -9.548602 2.167045 30.740196 14.099614 1.369792 48.463060 10.306295 4.827924 -32.435645 52.625924 -30.415795 3.180726 15.583358 5.967450 
-0.084328 0.702447 0.846549 178.573558 -1.574811 90.880402 15.165334 13.601623 -34.349606 -9.748784 4.211494 58.068816 2.200264 4.586512 -33.058483 0.000000 -0.000000 0.000000 -11.628789 -6.569151 -39.205838 1.189983 -2.642755 68.905063 4.513939 -2.541178 -30.557232 0.000000 -0.000000 0.000000 -1.490914 -1.123985 40.686393 0.323570 -2.303161 -3.314002 1.818104 -3.192339 -1.989799 -3.659077 7.272085 -20.451382 0.933556 2.273562 1.738973 -26.062388 -12.164685 -1.472964 -42.769876 -12.689802 -6.520291 17.492692 -44.180728 -7.669888 -4.099904 -9.514364 2.102131 30.446297 13.510560 1.276888 48.808449 9.562687 5.077520 -34.942742 55.455907 -32.240701 3.285461 15.817001 5.578379 
-0.088176 0.703043 0.846257 178.177210 -1.455445 90.868296 14.941013 13.846665 -34.450341 -9.519990 4.276774 58.620932 2.337204 4.702607 -33.414382 0.000000 -0.000000 0.000000 -11.625213 -6.722264 -39.282508 1.136456 -2.386905 68.911019 4.585486 -2.169446 -30.462884 0.000000 -0.000000 0.000000 -1.558590 -0.857613 40.790546 0.181416 -2.106790 -3.499450 1.838803 -3.043520 -2.005323 -3.824164 6.977604 -19.802190 0.881111 2.413377 1.156309 -25.978731 -11.025862 -1.447545 -42.567478 -11.217738 -6.496412 17.013980 -46.650570 -7.376789 -3.988353 -9.681027 2.041220 30.211883 12.873606 1.186686 48.943063 8.689226 5.374294 -37.730492 58.481875 -34.720837 3.506877 16.054425 5.430547 
-0.091444 0.702363 0.845989 178.206524 -1.370556 90.933064 14.810597 13.606655 -34.700662 -9.431422 4.500794 58.781061 2.630236 4.968870 -33.623809 0.000000 -0.000000 0.000000 -11.899577 -6.729585 -39.347404 1.250157 -2.510889 68.819060 4.718598 -2.151037 -30.300446 0.000000 -0.000000 0.000000 -1.669174 -0.782822 40.799109 0.210987 -2.014455 -3.529754 1.680660 -2.777558 -1.823191 -3.800861 7.015603 -19.779637 0.773811 1.906771 1.041884 -25.572433 -9.769354 -1.744885 -42.467146 -10.471447 -5.985232 16.370127 -49.020299 -6.965857 -3.703813 -9.969282 1.687935 29.993288 12.255198 0.648998 49.184279 8.430169 6.010928 -40.872330 60.626334 -37.161709 4.233671 16.567134 5.565822 
-0.094823 0.702276 0.845711 178.064441 -1.294634 90.980284 14.627989 13.295208 -35.068931 -9.336691 4.645589 59.406744 2.604041 5.369709 -33.823019 0.000000 -0.000000 0.000000 -12.024813 -6.778165 -39.410596 1.247292 -2.410883 68.777295 4.863051 -2.034569 -30.218578 0.000000 -0.000000 0.000000 -1.739904 -0.573426 40.934580 0.081389 -1.805535 -3.868934 1.680347 -2.661628 -1.644870 -3.896688 6.866068 -19.561561 0.648516 1.980345 0.771784 -25.274021 -8.631976 -2.006684 -42.579422 -9.528034 -5.642907 15.883072 -51.822530 -6.449233 -3.538099 -10.312969 0.863666 29.715946 11.821362 0.130143 49.394401 8.021942 6.564095 -44.094745 62.575913 -39.958572 4.436424 16.991321 6.175020 
-0.097796 0.702315 0.845445 178.136776 -1.142784 91.010024 14.631916 13.276108 -35.251387 -9.344640 4.838051 59.677484 2.829927 5.358718 -34.039539 0.000000 -0.000000 0.000000 -12.151674 -6.843377 -39.335781 1.183340 -2.522143 68.631259 4.941733 -1.929742 -30.112740 0.000000 -0.000000 0.000000 -1.728573 -0.418105 40.905196 0.063386 -1.666340 -3.930848 1.662589 -2.503468 -1.543600 -3.872766 6.544754 -19.486596 0.627809 1.692831 0.679659 -25.080593 -7.653556 -2.029647 -42.812246 -8.872423 -5.384946 15.740183 -54.986873 -6.238812 -3.459121 -10.345578 0.182714 29.530877 11.467507 -0.044656 49.471140 8.006394 6.765619 -47.450417 64.426051 -42.853581 4.710943 17.202749 6.658165 
-0.100285 0.702066 0.845186 178.257741 -1.029671 91.164161 14.616325 13.121608 -35.589650 -9.144696 5.162654 59.877111 3.005710 5.158590 -34.218173 0.000000 -0.000000 0.000000 -12.121617 -7.066804 -39.502238 1.029535 -2.390576 68.620718 5.092955 -1.762415 -29.935987 0.000000 -0.000000 0.000000 -1.768063 -0.230905 40.711556 0.065415 -1.545937 -3.877982 1.661361 -2.366096 -1.494451 -3.982938 6.438339 -19.472208 0.628196 1.451569 0.621903 -24.873139 -6.554205 -2.152427 -43.252418 -8.507092 -5.075782 16.160292 -58.521169 -6.558511 -4.236340 -10.366201 -0.864015 29.444895 11.052871 -0.299441 49.438162 8.322609 7.130087 -50.464619 65.849725 -45.597664 4.694349 17.562098 7.033723 
-0.103058 0.702196 0.844923 178.388454 -1.006021 91.148835 14.609151 13.014253 -35.723399 -9.125920 5.506345 60.118774 3.056008 4.861939 -34.326860 0.000000 -0.000000 0.000000 -12.251487 -7.239650 -39.448489 0.748608 -2.286009 68.633687 5.324998 -1.457040 -29.832518 0.000000 -0.000000 0.000000 -1.713540 0.010645 40.723977 -0.019970 -1.397855 -3.932536 1.588414 -2.181446 -1.337026 -4.104932 6.271928 -19.400498 0.635709 1.161593 0.481095 -24.666843 -5.711086 -2.549075 -43.919751 -8.381032 -4.452401 16.564418 -61.778096 -6.427551 -3.258722 -11.098825 -1.224791 29.260746 10.662370 -0.669624 49.602829 8.331774 7.354702 -54.294202 67.305651 -49.210358 4.193793 17.700398 7.408795 
